PathFileType	4	(X/Y/Z)	s10c0202.trc
DataRate	CameraRate	NumFrames	NumMarkers	Units	OrigDataRate	OrigDataStartFrame	OrigNumFrames
200	200	5	50	mm	200	0	2000
Frame#	Time	racr			lacr			c7			jug			rlel			rdr			llel			ldr			s2			lic			ric			lasi			rasi			rpsi			lpsi			rgt			lgt			rth1			rth2			rth3			rth4			rlfc			rmfc			rsh1			rsh2			rsh3			rsh4			rlmal			rmmal			rcal			rtoe			rmt5			lth1			lth2			lth4			lth3			llfc			lmfc			llmal			lmmal			lcal			lmt5			lsh1			lsh2			lsh3			lsh4			ltoe			SBIKE			LBIKE			RBIKE			
		X1	Y1	Z1	X2	Y2	Z2	X3	Y3	Z3	X4	Y4	Z4	X5	Y5	Z5	X6	Y6	Z6	X7	Y7	Z7	X8	Y8	Z8	X9	Y9	Z9	X10	Y10	Z10	X11	Y11	Z11	X12	Y12	Z12	X13	Y13	Z13	X14	Y14	Z14	X15	Y15	Z15	X16	Y16	Z16	X17	Y17	Z17	X18	Y18	Z18	X19	Y19	Z19	X20	Y20	Z20	X21	Y21	Z21	X22	Y22	Z22	X23	Y23	Z23	X24	Y24	Z24	X25	Y25	Z25	X26	Y26	Z26	X27	Y27	Z27	X28	Y28	Z28	X29	Y29	Z29	X30	Y30	Z30	X31	Y31	Z31	X32	Y32	Z32	X33	Y33	Z33	X34	Y34	Z34	X35	Y35	Z35	X36	Y36	Z36	X37	Y37	Z37	X38	Y38	Z38	X39	Y39	Z39	X40	Y40	Z40	X41	Y41	Z41	X42	Y42	Z42	X43	Y43	Z43	X44	Y44	Z44	X45	Y45	Z45	X46	Y46	Z46	X47	Y47	Z47	X48	Y48	Z48	X49	Y49	Z49	X50	Y50	Z50	
0	0.0000	378.038603	1324.239887	-59.390760	381.834064	1334.916989	-384.401573	372.037194	1358.382989	-223.185116	403.375813	1219.466039	-218.034157	462.603515	1077.091234	9.499915	618.358489	909.754431	-37.373094	452.897819	1073.512387	-473.931342	611.231639	906.646966	-429.967732	-112.465082	1096.944844	-224.579406	59.889014	1087.544170	-367.492639	69.707086	1094.232668	-95.595611	74.794697	996.562523	-342.641327	62.609902	1029.558823	-86.393229	-66.936737	1150.489741	-171.671690	-56.053668	1152.019096	-280.646077	-60.036179	1022.501956	-24.816854	-53.912507	964.348276	-411.368929	38.635007	939.867357	11.950002	127.882131	942.711375	7.788633	202.506130	900.695994	9.942337	135.176274	977.791248	-5.457380	318.179428	864.720728	-2.046823	320.201093	856.887011	-121.485332	258.244676	760.927214	10.303991	249.774420	675.130255	-12.802348	200.106059	606.600904	-29.141016	279.711080	670.765893	-36.764764	167.564663	509.345411	-60.489204	194.244234	537.337590	-135.607546	115.717450	487.566782	-107.507934	358.209308	474.310883	-105.278231	277.017926	445.489487	-43.307605	17.219462	852.050905	-428.779608	90.611500	806.009302	-419.623589	116.698175	830.435158	-409.660350	130.830153	726.738934	-411.516483	197.201753	640.239087	-392.873339	201.515832	632.866344	-273.625408	-13.365359	330.970586	-376.613620	4.296715	322.910563	-299.006511	-69.796822	330.734695	-331.045143	43.688475	197.822553	-400.228651	108.515438	553.301618	-417.048699	93.689844	466.723329	-403.971602	34.781724	400.983069	-396.273751	121.642474	456.702758	-380.537546	130.042296	176.743620	-346.912385	-217.813165	833.562725	-214.317356	-104.377600	80.234388	-418.288468	-103.608268	81.359422	-18.096787	
1	0.0050	378.095271	1324.231559	-59.360089	381.836271	1334.858932	-384.425255	372.080053	1358.368530	-223.123811	403.407119	1219.437759	-218.021128	462.629285	1077.082040	9.526826	618.348209	909.734210	-37.359185	452.829589	1073.448219	-473.997285	611.232671	906.638917	-430.024701	-112.405424	1096.941780	-224.504322	59.896202	1087.593333	-367.423643	69.772283	1094.221190	-95.517790	74.810041	996.585467	-342.603417	62.690435	1029.556640	-86.309414	-66.729768	1150.606320	-171.671281	-55.998366	1152.040435	-280.574745	-59.961924	1022.445092	-24.790537	-53.907999	964.391910	-411.331518	38.682441	939.773260	12.015425	127.959315	942.629197	7.859711	202.568399	900.600821	10.034998	135.221728	977.712939	-5.398440	318.213749	864.603046	-1.989820	320.248276	856.779577	-121.430005	258.351821	760.745574	10.363600	249.829845	675.005896	-12.752688	200.228946	606.432349	-29.113433	279.806688	670.665892	-36.713559	167.699251	509.247500	-60.472961	194.353846	537.175920	-135.603774	115.858175	487.444546	-107.463071	358.348379	474.151372	-105.247033	277.195829	445.361963	-43.294916	17.220556	852.124823	-428.797790	90.640846	806.092839	-419.669460	116.714380	830.509222	-409.710462	130.883820	726.813892	-411.573449	197.240503	640.321467	-392.957970	201.622814	632.909259	-273.702113	-13.439299	331.138907	-376.637799	4.338682	323.008481	-299.040418	-69.842039	330.907915	-331.064095	43.564875	197.958266	-400.237945	108.527954	553.406265	-417.097486	93.645537	466.825698	-404.056311	34.722567	401.094099	-396.301196	121.628094	456.818589	-380.591446	129.952283	176.859574	-346.916491	-217.807190	833.562488	-214.314894	-104.329038	80.284189	-418.267382	-103.612403	81.342172	-18.089246	
2	0.0100	378.145536	1324.255841	-59.323740	381.848250	1334.794524	-384.410686	372.113270	1358.349765	-223.033728	403.449361	1219.406185	-218.007262	462.644594	1077.079075	9.555131	618.359067	909.731795	-37.370580	452.763898	1073.385776	-474.057733	611.239938	906.668336	-430.103784	-112.373552	1096.973873	-224.429111	59.896456	1087.625601	-367.370710	69.847757	1094.226263	-95.416405	74.830799	996.615728	-342.568000	62.778056	1029.540914	-86.223660	-66.738621	1150.634848	-171.603791	-55.940942	1152.041923	-280.487981	-59.853465	1022.393055	-24.742441	-53.881866	964.446271	-411.298952	38.742439	939.700419	12.066343	128.000884	942.567682	7.941519	202.609940	900.530573	10.115128	135.283762	977.607539	-5.297118	318.266589	864.486747	-1.919499	320.311800	856.691905	-121.379020	258.442652	760.661147	10.437604	249.916654	674.916123	-12.690166	200.347520	606.291738	-29.069256	279.933852	670.564616	-36.680246	167.863959	509.117858	-60.454315	194.486222	537.073491	-135.587691	115.985770	487.353190	-107.428866	358.496729	474.013652	-105.205656	277.347320	445.266147	-43.272278	17.230547	852.173434	-428.789257	90.660455	806.150372	-419.677076	116.731877	830.574875	-409.717271	130.907006	726.890688	-411.628154	197.275555	640.372012	-393.014545	201.746242	632.966642	-273.758194	-13.493494	331.255548	-376.666697	4.299319	323.108875	-299.063143	-69.889640	331.051560	-331.054620	43.472829	198.065672	-400.243032	108.523954	553.512039	-417.136887	93.605676	466.908864	-404.113930	34.658191	401.210891	-396.320666	121.604695	456.892086	-380.637478	129.872952	176.976523	-346.899730	-217.817079	833.568117	-214.310391	-104.092946	81.761169	-417.359135	-103.587240	81.350902	-18.071310	
3	0.0150	378.225599	1324.275747	-59.281584	381.843670	1334.743832	-384.421408	373.084871	1357.648257	-222.787110	403.479414	1219.368798	-217.978734	462.680461	1077.084953	9.561147	618.363572	909.721772	-37.354919	452.712523	1073.333475	-474.115114	611.250288	906.688137	-430.174435	-112.323333	1096.940740	-224.367023	59.915833	1087.665177	-367.283505	70.139325	1094.341611	-95.340290	74.958493	996.900094	-342.823597	62.851391	1029.527586	-86.151736	-66.780037	1150.666690	-171.491297	-55.891433	1152.041716	-280.396843	-59.351790	1022.831664	-24.383476	-54.126005	963.633244	-411.212686	38.811905	939.612888	12.123487	128.040352	942.495921	8.005912	202.755395	900.368711	10.096355	135.343172	977.503037	-5.221136	318.323798	864.378615	-1.852744	320.348260	856.606137	-121.304162	258.518879	760.565617	10.513315	250.159544	675.056561	-12.810270	200.521540	606.164470	-29.052826	280.036155	670.502937	-36.631650	167.960681	508.995594	-60.388602	194.653856	537.235351	-135.312901	116.118961	487.131884	-107.386897	358.587171	473.931302	-105.150994	277.499741	445.168001	-43.242938	17.256226	852.243239	-428.795388	90.678265	806.210192	-419.714675	116.662855	831.100958	-410.500718	130.945865	726.939240	-411.658509	197.349670	640.536968	-392.962635	201.588506	633.057991	-273.705607	-13.558678	331.397347	-376.681638	4.371395	323.182590	-299.117503	-69.919663	331.188036	-331.064117	43.382849	198.142650	-400.243871	108.516442	553.617138	-417.177722	93.584356	467.023958	-404.129795	34.492164	401.456349	-396.328769	121.385694	457.352756	-379.755958	129.779791	177.059884	-346.889264	-217.819435	833.568296	-214.311914	-104.089666	81.749280	-417.332760	-103.571053	81.359560	-18.056903	
4	0.0200	378.350228	1324.307806	-59.256636	381.884231	1334.575362	-384.227999	373.111191	1357.648925	-222.689403	403.500288	1219.222724	-217.687556	462.731085	1077.154959	9.540836	617.966085	908.363914	-37.654322	452.527823	1072.518291	-473.877561	611.213643	906.566272	-430.068562	-112.253482	1095.965127	-224.257180	60.338099	1086.938755	-367.830980	70.246820	1094.364362	-95.206861	74.415353	995.907113	-342.309939	62.895870	1029.520000	-86.078360	-66.746250	1150.622207	-171.428258	-55.886369	1152.248485	-280.205262	-59.212026	1022.784295	-24.365740	-53.920666	963.817606	-411.497253	38.998730	939.748895	12.288257	128.177715	942.442318	7.942078	202.947980	900.518772	10.503437	135.466870	977.454294	-5.075174	318.484510	864.291054	-1.746019	320.362987	856.504919	-120.955762	258.700313	760.624696	10.729731	250.359189	674.954756	-12.651426	200.758556	606.138955	-28.895330	280.269436	670.461167	-36.421537	168.068985	509.037694	-60.096716	194.391538	536.377492	-135.533570	116.239448	487.255268	-106.941740	358.707903	473.791240	-105.166139	277.713407	445.177963	-43.070669	17.219367	851.572395	-428.758097	90.637624	805.399337	-419.735363	116.590415	830.309282	-410.595954	130.843861	726.148925	-411.609274	196.987701	639.419708	-392.689437	201.920052	633.092975	-273.820571	-13.831519	330.826145	-376.722683	4.364352	323.288413	-299.042459	-70.227270	330.626317	-331.038303	43.015406	197.346205	-400.312208	108.491311	552.938056	-417.277886	93.564600	467.010350	-404.049628	34.280410	400.701275	-396.390753	121.378030	457.475106	-379.764152	129.368612	176.092660	-346.281744	-218.124377	832.769883	-214.078539	-104.233062	80.442540	-418.266721	-103.995787	80.580414	-18.358816	
